# xmcd
# 
# Track frame offsets:
#     150
#     17937
#     33729
#     46411
#     59793
#     71452
#     81028
#     94029
#     107785
#     125939
#     149835
#     161002
#     175681
#     204744
# 
# Disc length: 3328
# 
# Revision: 0
# Processed by: cddbd v1.5.2PL0 Copyright (c) Steve Scherf et al.
# Submitted via: BonkEnc v1.0.8
# 
DISCID=d70cfe0e
DTITLE=Nova Era - Virtuosi
DYEAR=2004
DGENRE=Classical
TTITLE0=Cannon
TTITLE1=Seasons
TTITLE2=Pavane
TTITLE3=Concerto
TTITLE4=Mostly Mozart
TTITLE5=Queen of the Night
TTITLE6=Moonlight Sonata
TTITLE7=Double Cello Concerto G Minor
TTITLE8=Ser No. 10 'Gran Partita' K.361 in B flat: Adagio
TTITLE9=A Mozart Medley
TTITLE10=Double Vivaldi
TTITLE11=Arioso
TTITLE12=Cannon Remix
TTITLE13=Data Track
EXTD=
EXTT0=J. Pacheibel (1653-1706)
EXTT1=A medley of the Four Seasons by: A. Vivaldi (1678-1741)
EXTT2=Gabriel Fauré (1845-1924)
EXTT3=G. Pergolesi: From the Flute Concerto in G (1710-1736]\nG.F. Haendel: From the Concerto Grosso in E minor Op. 6 No. 3 (1685-1759]\nA Vivaldi: From the Concerto in Si minore Op. 3 No. 10 (1678-1759)
EXTT4=W. Mozart (1756-1792) From the Serenade in G-\nK525d-Rondo Oboe Concerto C major K314
EXTT5=Aria from The Magic Flute by: W. Mozart
EXTT6=L. Beethoven (1770-1827]\nSpecial guest vocal performance by\nCountertenor: Ralph Daniel Rawe\nwww.rallphdanielrawe,com
EXTT7=Featuring a Violin Concerto in G minor\nA. Vivaldi (1687-1741)
EXTT8=W. Mozart (1756-1791)
EXTT9=A Portpuori of his greatest hits!  W. Mozart (1756-1791)
EXTT10=Two Concertos in A Minor from the L'estro Armonico\nconcertos A. Vivaldi (1678-1741)
EXTT11=Largo from the Flute Concerto in G minor\nJ. S. Bach (1685-1750)
EXTT12=J. Pacheibel (1653-1706)
EXTT13=
PLAYORDER=
